<mxfile host="app.diagrams.net" agent="Mozilla/5.0 (Windows NT 10.0; Win64; x64) AppleWebKit/537.36 (KHTML, like Gecko) Chrome/137.0.0.0 Safari/537.36" version="27.1.4">
  <diagram id="C5RBs43oDa-KdzZeNtuy" name="Page-1">
    <mxGraphModel dx="983" dy="1687" grid="1" gridSize="18" guides="1" tooltips="1" connect="1" arrows="1" fold="1" page="1" pageScale="1" pageWidth="827" pageHeight="1169" math="0" shadow="0">
      <root>
        <mxCell id="WIyWlLk6GJQsqaUBKTNV-0" />
        <mxCell id="WIyWlLk6GJQsqaUBKTNV-1" parent="WIyWlLk6GJQsqaUBKTNV-0" />
        <mxCell id="kagNfTHLd-AzjVWpu5lo-22" value="RepositorioLocacao" style="swimlane;fontStyle=0;align=center;verticalAlign=top;childLayout=stackLayout;horizontal=1;startSize=26;horizontalStack=0;resizeParent=1;resizeLast=0;collapsible=1;marginBottom=0;rounded=0;shadow=0;strokeWidth=1;labelBackgroundColor=none;fillColor=#F2CC8F;strokeColor=#E07A5F;fontColor=#393C56;perimeterSpacing=0;" parent="WIyWlLk6GJQsqaUBKTNV-1" vertex="1">
          <mxGeometry x="600" y="-504" width="230" height="116" as="geometry">
            <mxRectangle x="230" y="140" width="160" height="26" as="alternateBounds" />
          </mxGeometry>
        </mxCell>
        <mxCell id="kagNfTHLd-AzjVWpu5lo-24" value="" style="line;html=1;strokeWidth=1;align=left;verticalAlign=middle;spacingTop=-1;spacingLeft=3;spacingRight=3;rotatable=1;labelPosition=right;points=[];portConstraint=eastwest;movable=1;resizable=1;deletable=1;editable=1;locked=0;connectable=1;labelBackgroundColor=none;fillColor=#F2CC8F;strokeColor=#E07A5F;fontColor=#393C56;" parent="kagNfTHLd-AzjVWpu5lo-22" vertex="1">
          <mxGeometry y="26" width="230" height="36" as="geometry" />
        </mxCell>
        <mxCell id="kagNfTHLd-AzjVWpu5lo-29" value="+ salvar();" style="text;align=left;verticalAlign=top;spacingLeft=4;spacingRight=4;overflow=hidden;rotatable=0;points=[[0,0.5],[1,0.5]];portConstraint=eastwest;rounded=0;shadow=0;html=0;labelBackgroundColor=none;fontColor=#393C56;" parent="kagNfTHLd-AzjVWpu5lo-22" vertex="1">
          <mxGeometry y="62" width="230" height="44" as="geometry" />
        </mxCell>
        <mxCell id="kagNfTHLd-AzjVWpu5lo-38" value="GestorLocacao" style="swimlane;fontStyle=0;align=center;verticalAlign=top;childLayout=stackLayout;horizontal=1;startSize=26;horizontalStack=0;resizeParent=1;resizeLast=0;collapsible=1;marginBottom=0;rounded=0;shadow=0;strokeWidth=1;labelBackgroundColor=none;fillColor=#F2CC8F;strokeColor=#E07A5F;fontColor=#393C56;perimeterSpacing=0;" parent="WIyWlLk6GJQsqaUBKTNV-1" vertex="1">
          <mxGeometry x="218" y="-142.25" width="340" height="110.5" as="geometry">
            <mxRectangle x="230" y="140" width="160" height="26" as="alternateBounds" />
          </mxGeometry>
        </mxCell>
        <mxCell id="kagNfTHLd-AzjVWpu5lo-40" value="" style="line;html=1;strokeWidth=1;align=left;verticalAlign=middle;spacingTop=-1;spacingLeft=3;spacingRight=3;rotatable=1;labelPosition=right;points=[];portConstraint=eastwest;movable=1;resizable=1;deletable=1;editable=1;locked=0;connectable=1;labelBackgroundColor=none;fillColor=#F2CC8F;strokeColor=#E07A5F;fontColor=#393C56;" parent="kagNfTHLd-AzjVWpu5lo-38" vertex="1">
          <mxGeometry y="26" width="340" height="46" as="geometry" />
        </mxCell>
        <mxCell id="6hpvukDDI9iX6RYFW3JA-12" value="+ registrarLocacao(dadosLocacao: array) : Locacao" style="text;align=left;verticalAlign=top;spacingLeft=4;spacingRight=4;overflow=hidden;rotatable=0;points=[[0,0.5],[1,0.5]];portConstraint=eastwest;rounded=0;shadow=0;html=0;labelBackgroundColor=none;fontColor=#393C56;" parent="kagNfTHLd-AzjVWpu5lo-38" vertex="1">
          <mxGeometry y="72" width="340" height="26" as="geometry" />
        </mxCell>
        <mxCell id="kagNfTHLd-AzjVWpu5lo-48" value="ControladoraCadastroLocacao" style="swimlane;fontStyle=0;align=center;verticalAlign=top;childLayout=stackLayout;horizontal=1;startSize=26;horizontalStack=0;resizeParent=1;resizeLast=0;collapsible=1;marginBottom=0;rounded=0;shadow=0;strokeWidth=1;labelBackgroundColor=none;fillColor=#F2CC8F;strokeColor=#E07A5F;fontColor=#393C56;perimeterSpacing=0;" parent="WIyWlLk6GJQsqaUBKTNV-1" vertex="1">
          <mxGeometry x="827" y="288" width="380" height="558" as="geometry">
            <mxRectangle x="230" y="140" width="160" height="26" as="alternateBounds" />
          </mxGeometry>
        </mxCell>
        <mxCell id="kagNfTHLd-AzjVWpu5lo-49" value="&#xa;- gestorLocacao : GestorLocacao" style="text;align=left;verticalAlign=top;spacingLeft=4;spacingRight=4;overflow=hidden;rotatable=0;points=[[0,0.5],[1,0.5]];portConstraint=eastwest;rounded=0;shadow=0;html=0;labelBackgroundColor=none;fontColor=#393C56;" parent="kagNfTHLd-AzjVWpu5lo-48" vertex="1">
          <mxGeometry y="26" width="380" height="42" as="geometry" />
        </mxCell>
        <mxCell id="97XKhYF0tcPtRtX-NgZ1-0" value="&#xa;- gestorFuncionario: GestorFuncionario" style="text;align=left;verticalAlign=top;spacingLeft=4;spacingRight=4;overflow=hidden;rotatable=0;points=[[0,0.5],[1,0.5]];portConstraint=eastwest;rounded=0;shadow=0;html=0;labelBackgroundColor=none;fontColor=#393C56;" vertex="1" parent="kagNfTHLd-AzjVWpu5lo-48">
          <mxGeometry y="68" width="380" height="42" as="geometry" />
        </mxCell>
        <mxCell id="97XKhYF0tcPtRtX-NgZ1-1" value="&#xa;- gestorCliente: GestorCliente" style="text;align=left;verticalAlign=top;spacingLeft=4;spacingRight=4;overflow=hidden;rotatable=0;points=[[0,0.5],[1,0.5]];portConstraint=eastwest;rounded=0;shadow=0;html=0;labelBackgroundColor=none;fontColor=#393C56;" vertex="1" parent="kagNfTHLd-AzjVWpu5lo-48">
          <mxGeometry y="110" width="380" height="42" as="geometry" />
        </mxCell>
        <mxCell id="97XKhYF0tcPtRtX-NgZ1-2" value="&#xa;- gestorItem: GestorItem" style="text;align=left;verticalAlign=top;spacingLeft=4;spacingRight=4;overflow=hidden;rotatable=0;points=[[0,0.5],[1,0.5]];portConstraint=eastwest;rounded=0;shadow=0;html=0;labelBackgroundColor=none;fontColor=#393C56;" vertex="1" parent="kagNfTHLd-AzjVWpu5lo-48">
          <mxGeometry y="152" width="380" height="42" as="geometry" />
        </mxCell>
        <mxCell id="6hpvukDDI9iX6RYFW3JA-7" value="&#xa;- itens : Item[]" style="text;align=left;verticalAlign=top;spacingLeft=4;spacingRight=4;overflow=hidden;rotatable=0;points=[[0,0.5],[1,0.5]];portConstraint=eastwest;rounded=0;shadow=0;html=0;labelBackgroundColor=none;fontColor=#393C56;" parent="kagNfTHLd-AzjVWpu5lo-48" vertex="1">
          <mxGeometry y="194" width="380" height="42" as="geometry" />
        </mxCell>
        <mxCell id="6hpvukDDI9iX6RYFW3JA-9" value="&#xa;- cliente : Cliente" style="text;align=left;verticalAlign=top;spacingLeft=4;spacingRight=4;overflow=hidden;rotatable=0;points=[[0,0.5],[1,0.5]];portConstraint=eastwest;rounded=0;shadow=0;html=0;labelBackgroundColor=none;fontColor=#393C56;" parent="kagNfTHLd-AzjVWpu5lo-48" vertex="1">
          <mxGeometry y="236" width="380" height="42" as="geometry" />
        </mxCell>
        <mxCell id="6hpvukDDI9iX6RYFW3JA-8" value="&#xa;- funcionario : Funcionario" style="text;align=left;verticalAlign=top;spacingLeft=4;spacingRight=4;overflow=hidden;rotatable=0;points=[[0,0.5],[1,0.5]];portConstraint=eastwest;rounded=0;shadow=0;html=0;labelBackgroundColor=none;fontColor=#393C56;" parent="kagNfTHLd-AzjVWpu5lo-48" vertex="1">
          <mxGeometry y="278" width="380" height="42" as="geometry" />
        </mxCell>
        <mxCell id="kagNfTHLd-AzjVWpu5lo-52" value="" style="line;html=1;strokeWidth=1;align=left;verticalAlign=middle;spacingTop=-1;spacingLeft=3;spacingRight=3;rotatable=1;labelPosition=right;points=[];portConstraint=eastwest;movable=1;resizable=1;deletable=1;editable=1;locked=0;connectable=1;labelBackgroundColor=none;fillColor=#F2CC8F;strokeColor=#E07A5F;fontColor=#393C56;" parent="kagNfTHLd-AzjVWpu5lo-48" vertex="1">
          <mxGeometry y="320" width="380" height="30" as="geometry" />
        </mxCell>
        <mxCell id="6hpvukDDI9iX6RYFW3JA-5" value="&#xa;+ carregarFuncionarios() : FuncionarioDTO[]" style="text;align=left;verticalAlign=top;spacingLeft=4;spacingRight=4;overflow=hidden;rotatable=0;points=[[0,0.5],[1,0.5]];portConstraint=eastwest;rounded=0;shadow=0;html=0;labelBackgroundColor=none;fontColor=#393C56;" parent="kagNfTHLd-AzjVWpu5lo-48" vertex="1">
          <mxGeometry y="350" width="380" height="42" as="geometry" />
        </mxCell>
        <mxCell id="kagNfTHLd-AzjVWpu5lo-59" value="+ selecionarFuncionario(codigoFuncionario: string) : void" style="text;align=left;verticalAlign=top;spacingLeft=4;spacingRight=4;overflow=hidden;rotatable=0;points=[[0,0.5],[1,0.5]];portConstraint=eastwest;rounded=0;shadow=0;html=0;labelBackgroundColor=none;fontColor=#393C56;" parent="kagNfTHLd-AzjVWpu5lo-48" vertex="1">
          <mxGeometry y="392" width="380" height="26" as="geometry" />
        </mxCell>
        <mxCell id="kagNfTHLd-AzjVWpu5lo-53" value="+ buscarCliente(busca: string) : void" style="text;align=left;verticalAlign=top;spacingLeft=4;spacingRight=4;overflow=hidden;rotatable=0;points=[[0,0.5],[1,0.5]];portConstraint=eastwest;rounded=0;shadow=0;html=0;labelBackgroundColor=none;fontColor=#393C56;" parent="kagNfTHLd-AzjVWpu5lo-48" vertex="1">
          <mxGeometry y="418" width="380" height="26" as="geometry" />
        </mxCell>
        <mxCell id="kagNfTHLd-AzjVWpu5lo-54" value="+ buscarItem(codigo: string) : void" style="text;align=left;verticalAlign=top;spacingLeft=4;spacingRight=4;overflow=hidden;rotatable=0;points=[[0,0.5],[1,0.5]];portConstraint=eastwest;rounded=0;shadow=0;html=0;labelBackgroundColor=none;fontColor=#393C56;" parent="kagNfTHLd-AzjVWpu5lo-48" vertex="1">
          <mxGeometry y="444" width="380" height="26" as="geometry" />
        </mxCell>
        <mxCell id="6hpvukDDI9iX6RYFW3JA-10" value="+ removerItem(indice: number) : void" style="text;align=left;verticalAlign=top;spacingLeft=4;spacingRight=4;overflow=hidden;rotatable=0;points=[[0,0.5],[1,0.5]];portConstraint=eastwest;rounded=0;shadow=0;html=0;labelBackgroundColor=none;fontColor=#393C56;" parent="kagNfTHLd-AzjVWpu5lo-48" vertex="1">
          <mxGeometry y="470" width="380" height="26" as="geometry" />
        </mxCell>
        <mxCell id="kagNfTHLd-AzjVWpu5lo-55" value="+ registrarLocacao(horas: number) : void" style="text;align=left;verticalAlign=top;spacingLeft=4;spacingRight=4;overflow=hidden;rotatable=0;points=[[0,0.5],[1,0.5]];portConstraint=eastwest;rounded=0;shadow=0;html=0;labelBackgroundColor=none;fontColor=#393C56;" parent="kagNfTHLd-AzjVWpu5lo-48" vertex="1">
          <mxGeometry y="496" width="380" height="38" as="geometry" />
        </mxCell>
        <mxCell id="kagNfTHLd-AzjVWpu5lo-60" value="VisaoCadastroLocacao" style="swimlane;fontStyle=0;align=center;verticalAlign=top;childLayout=stackLayout;horizontal=1;startSize=26;horizontalStack=0;resizeParent=1;resizeLast=0;collapsible=1;marginBottom=0;rounded=0;shadow=0;strokeWidth=1;labelBackgroundColor=none;fillColor=#F2CC8F;strokeColor=#E07A5F;fontColor=#393C56;perimeterSpacing=0;" parent="WIyWlLk6GJQsqaUBKTNV-1" vertex="1">
          <mxGeometry x="198" y="349" width="380" height="371" as="geometry">
            <mxRectangle x="230" y="140" width="160" height="26" as="alternateBounds" />
          </mxGeometry>
        </mxCell>
        <mxCell id="6hpvukDDI9iX6RYFW3JA-0" value="&#xa;- locacaoCalculada : boolean" style="text;align=left;verticalAlign=top;spacingLeft=4;spacingRight=4;overflow=hidden;rotatable=0;points=[[0,0.5],[1,0.5]];portConstraint=eastwest;rounded=0;shadow=0;html=0;labelBackgroundColor=none;fontColor=#393C56;" parent="kagNfTHLd-AzjVWpu5lo-60" vertex="1">
          <mxGeometry y="26" width="380" height="46" as="geometry" />
        </mxCell>
        <mxCell id="6hpvukDDI9iX6RYFW3JA-1" value="&#xa;- subtotais : number[]" style="text;align=left;verticalAlign=top;spacingLeft=4;spacingRight=4;overflow=hidden;rotatable=0;points=[[0,0.5],[1,0.5]];portConstraint=eastwest;rounded=0;shadow=0;html=0;labelBackgroundColor=none;fontColor=#393C56;" parent="kagNfTHLd-AzjVWpu5lo-60" vertex="1">
          <mxGeometry y="72" width="380" height="46" as="geometry" />
        </mxCell>
        <mxCell id="kagNfTHLd-AzjVWpu5lo-65" value="" style="line;html=1;strokeWidth=1;align=left;verticalAlign=middle;spacingTop=-1;spacingLeft=3;spacingRight=3;rotatable=1;labelPosition=right;points=[];portConstraint=eastwest;movable=1;resizable=1;deletable=1;editable=1;locked=0;connectable=1;labelBackgroundColor=none;fillColor=#F2CC8F;strokeColor=#E07A5F;fontColor=#393C56;" parent="kagNfTHLd-AzjVWpu5lo-60" vertex="1">
          <mxGeometry y="118" width="380" height="30" as="geometry" />
        </mxCell>
        <mxCell id="kagNfTHLd-AzjVWpu5lo-66" value="+ iniciar() : void" style="text;align=left;verticalAlign=top;spacingLeft=4;spacingRight=4;overflow=hidden;rotatable=0;points=[[0,0.5],[1,0.5]];portConstraint=eastwest;rounded=0;shadow=0;html=0;labelBackgroundColor=none;fontColor=#393C56;" parent="kagNfTHLd-AzjVWpu5lo-60" vertex="1">
          <mxGeometry y="148" width="380" height="26" as="geometry" />
        </mxCell>
        <mxCell id="kagNfTHLd-AzjVWpu5lo-68" value="+ listaFuncionarios(dadosFuncionario: FuncionarioDTO[]) : void" style="text;align=left;verticalAlign=top;spacingLeft=4;spacingRight=4;overflow=hidden;rotatable=0;points=[[0,0.5],[1,0.5]];portConstraint=eastwest;rounded=0;shadow=0;html=0;labelBackgroundColor=none;fontColor=#393C56;" parent="kagNfTHLd-AzjVWpu5lo-60" vertex="1">
          <mxGeometry y="174" width="380" height="26" as="geometry" />
        </mxCell>
        <mxCell id="kagNfTHLd-AzjVWpu5lo-67" value="+ exibirCliente(dadosCliente: ClienteDTO) : void" style="text;align=left;verticalAlign=top;spacingLeft=4;spacingRight=4;overflow=hidden;rotatable=0;points=[[0,0.5],[1,0.5]];portConstraint=eastwest;rounded=0;shadow=0;html=0;labelBackgroundColor=none;fontColor=#393C56;" parent="kagNfTHLd-AzjVWpu5lo-60" vertex="1">
          <mxGeometry y="200" width="380" height="26" as="geometry" />
        </mxCell>
        <mxCell id="kagNfTHLd-AzjVWpu5lo-69" value="+ inserirItemNaTabela(dadosItem: ItemDTO) : void" style="text;align=left;verticalAlign=top;spacingLeft=4;spacingRight=4;overflow=hidden;rotatable=0;points=[[0,0.5],[1,0.5]];portConstraint=eastwest;rounded=0;shadow=0;html=0;labelBackgroundColor=none;fontColor=#393C56;" parent="kagNfTHLd-AzjVWpu5lo-60" vertex="1">
          <mxGeometry y="226" width="380" height="26" as="geometry" />
        </mxCell>
        <mxCell id="6hpvukDDI9iX6RYFW3JA-2" value="+ atualizarSubtotais(subtotais: number[]) : void" style="text;align=left;verticalAlign=top;spacingLeft=4;spacingRight=4;overflow=hidden;rotatable=0;points=[[0,0.5],[1,0.5]];portConstraint=eastwest;rounded=0;shadow=0;html=0;labelBackgroundColor=none;fontColor=#393C56;" parent="kagNfTHLd-AzjVWpu5lo-60" vertex="1">
          <mxGeometry y="252" width="380" height="26" as="geometry" />
        </mxCell>
        <mxCell id="6hpvukDDI9iX6RYFW3JA-3" value="+ exibirResumoLocacao(dadosResumo: array) : void" style="text;align=left;verticalAlign=top;spacingLeft=4;spacingRight=4;overflow=hidden;rotatable=0;points=[[0,0.5],[1,0.5]];portConstraint=eastwest;rounded=0;shadow=0;html=0;labelBackgroundColor=none;fontColor=#393C56;" parent="kagNfTHLd-AzjVWpu5lo-60" vertex="1">
          <mxGeometry y="278" width="380" height="26" as="geometry" />
        </mxCell>
        <mxCell id="6hpvukDDI9iX6RYFW3JA-4" value="+ registrarLocacao() : void" style="text;align=left;verticalAlign=top;spacingLeft=4;spacingRight=4;overflow=hidden;rotatable=0;points=[[0,0.5],[1,0.5]];portConstraint=eastwest;rounded=0;shadow=0;html=0;labelBackgroundColor=none;fontColor=#393C56;" parent="kagNfTHLd-AzjVWpu5lo-60" vertex="1">
          <mxGeometry y="304" width="380" height="26" as="geometry" />
        </mxCell>
        <mxCell id="kagNfTHLd-AzjVWpu5lo-114" value="" style="endArrow=none;html=1;rounded=0;endFill=0;exitX=0.5;exitY=0;exitDx=0;exitDy=0;endSize=10;startFill=0;" parent="WIyWlLk6GJQsqaUBKTNV-1" edge="1">
          <mxGeometry width="50" height="50" relative="1" as="geometry">
            <mxPoint x="1008.23" y="288" as="sourcePoint" />
            <mxPoint x="1008" y="180" as="targetPoint" />
          </mxGeometry>
        </mxCell>
        <mxCell id="teHVdfIoACIgiHQUZxr0-27" value="1" style="text;align=left;verticalAlign=top;spacingLeft=4;spacingRight=4;overflow=hidden;rotatable=0;points=[[0,0.5],[1,0.5]];portConstraint=eastwest;rounded=0;shadow=0;html=0;labelBackgroundColor=none;fontColor=#393C56;fontSize=13;" parent="WIyWlLk6GJQsqaUBKTNV-1" vertex="1">
          <mxGeometry x="578" y="505" width="18" height="26" as="geometry" />
        </mxCell>
        <mxCell id="teHVdfIoACIgiHQUZxr0-35" value="1" style="text;align=left;verticalAlign=top;spacingLeft=4;spacingRight=4;overflow=hidden;rotatable=0;points=[[0,0.5],[1,0.5]];portConstraint=eastwest;rounded=0;shadow=0;html=0;labelBackgroundColor=none;fontColor=#393C56;fontSize=13;" parent="WIyWlLk6GJQsqaUBKTNV-1" vertex="1">
          <mxGeometry x="806" y="504" width="24" height="26" as="geometry" />
        </mxCell>
        <mxCell id="teHVdfIoACIgiHQUZxr0-36" value="aciona" style="text;align=left;verticalAlign=top;spacingLeft=4;spacingRight=4;overflow=hidden;rotatable=0;points=[[0,0.5],[1,0.5]];portConstraint=eastwest;rounded=0;shadow=0;html=0;labelBackgroundColor=none;fontColor=#393C56;" parent="WIyWlLk6GJQsqaUBKTNV-1" vertex="1">
          <mxGeometry x="684" y="512" width="54" height="26" as="geometry" />
        </mxCell>
        <mxCell id="6PMQrMNQSTVx5noMZmWa-0" value="Locacao" style="swimlane;fontStyle=0;align=center;verticalAlign=top;childLayout=stackLayout;horizontal=1;startSize=26;horizontalStack=0;resizeParent=1;resizeLast=0;collapsible=1;marginBottom=0;rounded=0;shadow=0;strokeWidth=1;labelBackgroundColor=none;fillColor=#F2CC8F;strokeColor=#E07A5F;fontColor=#393C56;" parent="WIyWlLk6GJQsqaUBKTNV-1" vertex="1">
          <mxGeometry x="1171" y="-603" width="230" height="314" as="geometry">
            <mxRectangle x="550" y="140" width="160" height="26" as="alternateBounds" />
          </mxGeometry>
        </mxCell>
        <mxCell id="6PMQrMNQSTVx5noMZmWa-1" value="&#xa;- id : int" style="text;align=left;verticalAlign=top;spacingLeft=4;spacingRight=4;overflow=hidden;rotatable=0;points=[[0,0.5],[1,0.5]];portConstraint=eastwest;rounded=0;shadow=0;html=0;labelBackgroundColor=none;fontColor=#393C56;" parent="6PMQrMNQSTVx5noMZmWa-0" vertex="1">
          <mxGeometry y="26" width="230" height="42" as="geometry" />
        </mxCell>
        <mxCell id="6PMQrMNQSTVx5noMZmWa-2" value="- dataHora : dateTime" style="text;align=left;verticalAlign=top;spacingLeft=4;spacingRight=4;overflow=hidden;rotatable=0;points=[[0,0.5],[1,0.5]];portConstraint=eastwest;rounded=0;shadow=0;html=0;labelBackgroundColor=none;fontColor=#393C56;" parent="6PMQrMNQSTVx5noMZmWa-0" vertex="1">
          <mxGeometry y="68" width="230" height="26" as="geometry" />
        </mxCell>
        <mxCell id="6PMQrMNQSTVx5noMZmWa-3" value="- horasContratadas : int" style="text;align=left;verticalAlign=top;spacingLeft=4;spacingRight=4;overflow=hidden;rotatable=0;points=[[0,0.5],[1,0.5]];portConstraint=eastwest;rounded=0;shadow=0;html=0;labelBackgroundColor=none;fontColor=#393C56;" parent="6PMQrMNQSTVx5noMZmWa-0" vertex="1">
          <mxGeometry y="94" width="230" height="26" as="geometry" />
        </mxCell>
        <mxCell id="6PMQrMNQSTVx5noMZmWa-7" value="- status : string" style="text;align=left;verticalAlign=top;spacingLeft=4;spacingRight=4;overflow=hidden;rotatable=0;points=[[0,0.5],[1,0.5]];portConstraint=eastwest;rounded=0;shadow=0;html=0;labelBackgroundColor=none;fontColor=#393C56;" parent="6PMQrMNQSTVx5noMZmWa-0" vertex="1">
          <mxGeometry y="120" width="230" height="26" as="geometry" />
        </mxCell>
        <mxCell id="6PMQrMNQSTVx5noMZmWa-5" value="- cliente : Cliente" style="text;align=left;verticalAlign=top;spacingLeft=4;spacingRight=4;overflow=hidden;rotatable=0;points=[[0,0.5],[1,0.5]];portConstraint=eastwest;rounded=0;shadow=0;html=0;labelBackgroundColor=none;fontColor=#393C56;" parent="6PMQrMNQSTVx5noMZmWa-0" vertex="1">
          <mxGeometry y="146" width="230" height="26" as="geometry" />
        </mxCell>
        <mxCell id="6PMQrMNQSTVx5noMZmWa-6" value="- funcionario : Funcionario" style="text;align=left;verticalAlign=top;spacingLeft=4;spacingRight=4;overflow=hidden;rotatable=0;points=[[0,0.5],[1,0.5]];portConstraint=eastwest;rounded=0;shadow=0;html=0;labelBackgroundColor=none;fontColor=#393C56;" parent="6PMQrMNQSTVx5noMZmWa-0" vertex="1">
          <mxGeometry y="172" width="230" height="26" as="geometry" />
        </mxCell>
        <mxCell id="6PMQrMNQSTVx5noMZmWa-9" value="- itens : Item[]" style="text;align=left;verticalAlign=top;spacingLeft=4;spacingRight=4;overflow=hidden;rotatable=0;points=[[0,0.5],[1,0.5]];portConstraint=eastwest;rounded=0;shadow=0;html=0;labelBackgroundColor=none;fontColor=#393C56;" parent="6PMQrMNQSTVx5noMZmWa-0" vertex="1">
          <mxGeometry y="198" width="230" height="26" as="geometry" />
        </mxCell>
        <mxCell id="6PMQrMNQSTVx5noMZmWa-8" value="" style="line;html=1;strokeWidth=1;align=left;verticalAlign=middle;spacingTop=-1;spacingLeft=3;spacingRight=3;rotatable=0;labelPosition=right;points=[];portConstraint=eastwest;labelBackgroundColor=none;fillColor=#F2CC8F;strokeColor=#E07A5F;fontColor=#393C56;" parent="6PMQrMNQSTVx5noMZmWa-0" vertex="1">
          <mxGeometry y="224" width="230" height="24" as="geometry" />
        </mxCell>
        <mxCell id="6PMQrMNQSTVx5noMZmWa-12" value="+ validar() : string[]" style="text;align=left;verticalAlign=top;spacingLeft=4;spacingRight=4;overflow=hidden;rotatable=0;points=[[0,0.5],[1,0.5]];portConstraint=eastwest;rounded=0;shadow=0;html=0;labelBackgroundColor=none;fontColor=#393C56;" parent="6PMQrMNQSTVx5noMZmWa-0" vertex="1">
          <mxGeometry y="248" width="230" height="26" as="geometry" />
        </mxCell>
        <mxCell id="6PMQrMNQSTVx5noMZmWa-11" value="+ adicionarItem() : string[]" style="text;align=left;verticalAlign=top;spacingLeft=4;spacingRight=4;overflow=hidden;rotatable=0;points=[[0,0.5],[1,0.5]];portConstraint=eastwest;rounded=0;shadow=0;html=0;labelBackgroundColor=none;fontColor=#393C56;" parent="6PMQrMNQSTVx5noMZmWa-0" vertex="1">
          <mxGeometry y="274" width="230" height="26" as="geometry" />
        </mxCell>
        <mxCell id="6PMQrMNQSTVx5noMZmWa-13" value="" style="endArrow=open;html=1;rounded=0;endFill=0;jumpSize=9;endSize=10;" parent="WIyWlLk6GJQsqaUBKTNV-1" edge="1">
          <mxGeometry width="50" height="50" relative="1" as="geometry">
            <mxPoint x="577" y="541" as="sourcePoint" />
            <mxPoint x="827" y="540" as="targetPoint" />
          </mxGeometry>
        </mxCell>
        <mxCell id="6PMQrMNQSTVx5noMZmWa-15" value="" style="endArrow=none;html=1;rounded=0;endFill=0;endSize=10;startFill=0;" parent="WIyWlLk6GJQsqaUBKTNV-1" edge="1">
          <mxGeometry width="50" height="50" relative="1" as="geometry">
            <mxPoint x="378" y="180" as="sourcePoint" />
            <mxPoint x="1007.77" y="180" as="targetPoint" />
          </mxGeometry>
        </mxCell>
        <mxCell id="6PMQrMNQSTVx5noMZmWa-16" value="" style="endArrow=open;html=1;rounded=0;endFill=0;endSize=10;startFill=0;" parent="WIyWlLk6GJQsqaUBKTNV-1" edge="1">
          <mxGeometry width="50" height="50" relative="1" as="geometry">
            <mxPoint x="377" y="180" as="sourcePoint" />
            <mxPoint x="377" y="-33" as="targetPoint" />
          </mxGeometry>
        </mxCell>
        <mxCell id="6PMQrMNQSTVx5noMZmWa-17" value="encaminha" style="text;align=left;verticalAlign=top;spacingLeft=4;spacingRight=4;overflow=hidden;rotatable=0;points=[[0,0.5],[1,0.5]];portConstraint=eastwest;rounded=0;shadow=0;html=0;labelBackgroundColor=none;fontColor=#393C56;" parent="WIyWlLk6GJQsqaUBKTNV-1" vertex="1">
          <mxGeometry x="684" y="152" width="72" height="26" as="geometry" />
        </mxCell>
        <mxCell id="6PMQrMNQSTVx5noMZmWa-18" value="1" style="text;align=left;verticalAlign=top;spacingLeft=4;spacingRight=4;overflow=hidden;rotatable=0;points=[[0,0.5],[1,0.5]];portConstraint=eastwest;rounded=0;shadow=0;html=0;labelBackgroundColor=none;fontColor=#393C56;fontSize=13;" parent="WIyWlLk6GJQsqaUBKTNV-1" vertex="1">
          <mxGeometry x="387" y="91" width="24" height="26" as="geometry" />
        </mxCell>
        <mxCell id="6PMQrMNQSTVx5noMZmWa-19" value="1" style="text;align=left;verticalAlign=top;spacingLeft=4;spacingRight=4;overflow=hidden;rotatable=0;points=[[0,0.5],[1,0.5]];portConstraint=eastwest;rounded=0;shadow=0;html=0;labelBackgroundColor=none;fontColor=#393C56;fontSize=13;" parent="WIyWlLk6GJQsqaUBKTNV-1" vertex="1">
          <mxGeometry x="1010" y="259" width="24" height="26" as="geometry" />
        </mxCell>
        <mxCell id="6PMQrMNQSTVx5noMZmWa-20" value="ServicoLocacao" style="swimlane;fontStyle=0;align=center;verticalAlign=top;childLayout=stackLayout;horizontal=1;startSize=26;horizontalStack=0;resizeParent=1;resizeLast=0;collapsible=1;marginBottom=0;rounded=0;shadow=0;strokeWidth=1;labelBackgroundColor=none;fillColor=#F2CC8F;strokeColor=#E07A5F;fontColor=#393C56;perimeterSpacing=0;" parent="WIyWlLk6GJQsqaUBKTNV-1" vertex="1">
          <mxGeometry x="855" y="-194.5" width="340" height="240" as="geometry">
            <mxRectangle x="230" y="140" width="160" height="26" as="alternateBounds" />
          </mxGeometry>
        </mxCell>
        <mxCell id="6PMQrMNQSTVx5noMZmWa-32" value="&#xa;- repositorioFabricante : RepositorioFuncionario" style="text;align=left;verticalAlign=top;spacingLeft=4;spacingRight=4;overflow=hidden;rotatable=0;points=[[0,0.5],[1,0.5]];portConstraint=eastwest;rounded=0;shadow=0;html=0;labelBackgroundColor=none;fontColor=#393C56;" parent="6PMQrMNQSTVx5noMZmWa-20" vertex="1">
          <mxGeometry y="26" width="340" height="42" as="geometry" />
        </mxCell>
        <mxCell id="6PMQrMNQSTVx5noMZmWa-22" value="- repositorioCliente : RepositorioCliente" style="text;align=left;verticalAlign=top;spacingLeft=4;spacingRight=4;overflow=hidden;rotatable=0;points=[[0,0.5],[1,0.5]];portConstraint=eastwest;rounded=0;shadow=0;html=0;labelBackgroundColor=none;fontColor=#393C56;" parent="6PMQrMNQSTVx5noMZmWa-20" vertex="1">
          <mxGeometry y="68" width="340" height="26" as="geometry" />
        </mxCell>
        <mxCell id="6PMQrMNQSTVx5noMZmWa-23" value="- repositorioFuncionario : RepositorioFuncionario" style="text;align=left;verticalAlign=top;spacingLeft=4;spacingRight=4;overflow=hidden;rotatable=0;points=[[0,0.5],[1,0.5]];portConstraint=eastwest;rounded=0;shadow=0;html=0;labelBackgroundColor=none;fontColor=#393C56;" parent="6PMQrMNQSTVx5noMZmWa-20" vertex="1">
          <mxGeometry y="94" width="340" height="26" as="geometry" />
        </mxCell>
        <mxCell id="6PMQrMNQSTVx5noMZmWa-31" value="- repositorioItem : RepositorioFuncionario" style="text;align=left;verticalAlign=top;spacingLeft=4;spacingRight=4;overflow=hidden;rotatable=0;points=[[0,0.5],[1,0.5]];portConstraint=eastwest;rounded=0;shadow=0;html=0;labelBackgroundColor=none;fontColor=#393C56;" parent="6PMQrMNQSTVx5noMZmWa-20" vertex="1">
          <mxGeometry y="120" width="340" height="26" as="geometry" />
        </mxCell>
        <mxCell id="6PMQrMNQSTVx5noMZmWa-24" value="" style="line;html=1;strokeWidth=1;align=left;verticalAlign=middle;spacingTop=-1;spacingLeft=3;spacingRight=3;rotatable=1;labelPosition=right;points=[];portConstraint=eastwest;movable=1;resizable=1;deletable=1;editable=1;locked=0;connectable=1;labelBackgroundColor=none;fillColor=#F2CC8F;strokeColor=#E07A5F;fontColor=#393C56;" parent="6PMQrMNQSTVx5noMZmWa-20" vertex="1">
          <mxGeometry y="146" width="340" height="30" as="geometry" />
        </mxCell>
        <mxCell id="6PMQrMNQSTVx5noMZmWa-25" value="+ cadastrar(dados: array) : array" style="text;align=left;verticalAlign=top;spacingLeft=4;spacingRight=4;overflow=hidden;rotatable=0;points=[[0,0.5],[1,0.5]];portConstraint=eastwest;rounded=0;shadow=0;html=0;labelBackgroundColor=none;fontColor=#393C56;" parent="6PMQrMNQSTVx5noMZmWa-20" vertex="1">
          <mxGeometry y="176" width="340" height="26" as="geometry" />
        </mxCell>
        <mxCell id="6PMQrMNQSTVx5noMZmWa-33" value="" style="endArrow=open;html=1;rounded=0;endFill=0;jumpSize=9;endSize=12;dashed=1;entryX=0;entryY=0.894;entryDx=0;entryDy=0;entryPerimeter=0;strokeWidth=1.5;startSize=3;targetPerimeterSpacing=0;sourcePerimeterSpacing=3;" parent="WIyWlLk6GJQsqaUBKTNV-1" edge="1">
          <mxGeometry width="50" height="50" relative="1" as="geometry">
            <mxPoint x="558" y="-73" as="sourcePoint" />
            <mxPoint x="855.0000000000002" y="-73.34600000000009" as="targetPoint" />
          </mxGeometry>
        </mxCell>
        <mxCell id="6PMQrMNQSTVx5noMZmWa-34" value="requisita" style="text;align=left;verticalAlign=top;spacingLeft=4;spacingRight=4;overflow=hidden;rotatable=0;points=[[0,0.5],[1,0.5]];portConstraint=eastwest;rounded=0;shadow=0;html=0;labelBackgroundColor=none;fontColor=#393C56;" parent="WIyWlLk6GJQsqaUBKTNV-1" vertex="1">
          <mxGeometry x="676" y="-100" width="62" height="26" as="geometry" />
        </mxCell>
        <mxCell id="6PMQrMNQSTVx5noMZmWa-35" value="0..*" style="text;align=left;verticalAlign=top;spacingLeft=4;spacingRight=4;overflow=hidden;rotatable=0;points=[[0,0.5],[1,0.5]];portConstraint=eastwest;rounded=0;shadow=0;html=0;labelBackgroundColor=none;fontColor=#393C56;strokeWidth=1;perimeterSpacing=0;spacing=2;fontSize=13;" parent="WIyWlLk6GJQsqaUBKTNV-1" vertex="1">
          <mxGeometry x="558" y="-108" width="35" height="26" as="geometry" />
        </mxCell>
        <mxCell id="6PMQrMNQSTVx5noMZmWa-36" value="1" style="text;align=left;verticalAlign=top;spacingLeft=4;spacingRight=4;overflow=hidden;rotatable=0;points=[[0,0.5],[1,0.5]];portConstraint=eastwest;rounded=0;shadow=0;html=0;labelBackgroundColor=none;fontColor=#393C56;fontSize=13;" parent="WIyWlLk6GJQsqaUBKTNV-1" vertex="1">
          <mxGeometry x="827" y="-108" width="24" height="26" as="geometry" />
        </mxCell>
        <mxCell id="6PMQrMNQSTVx5noMZmWa-37" value="" style="endArrow=none;html=1;rounded=0;endFill=0;jumpSize=9;endSize=12;dashed=1;strokeWidth=1.5;startSize=3;targetPerimeterSpacing=0;sourcePerimeterSpacing=3;startFill=0;" parent="WIyWlLk6GJQsqaUBKTNV-1" edge="1">
          <mxGeometry width="50" height="50" relative="1" as="geometry">
            <mxPoint x="1008" y="-194.50399999999988" as="sourcePoint" />
            <mxPoint x="1008" y="-468" as="targetPoint" />
          </mxGeometry>
        </mxCell>
        <mxCell id="6PMQrMNQSTVx5noMZmWa-38" value="" style="endArrow=open;html=1;rounded=0;endFill=0;jumpSize=9;endSize=12;dashed=1;strokeWidth=1.5;startSize=3;targetPerimeterSpacing=0;sourcePerimeterSpacing=3;" parent="WIyWlLk6GJQsqaUBKTNV-1" edge="1">
          <mxGeometry width="50" height="50" relative="1" as="geometry">
            <mxPoint x="1007" y="-470" as="sourcePoint" />
            <mxPoint x="1170" y="-470" as="targetPoint" />
          </mxGeometry>
        </mxCell>
        <mxCell id="6PMQrMNQSTVx5noMZmWa-39" value="" style="endArrow=none;html=1;rounded=0;endFill=0;exitX=0.5;exitY=0;exitDx=0;exitDy=0;endSize=10;startFill=0;" parent="WIyWlLk6GJQsqaUBKTNV-1" edge="1">
          <mxGeometry width="50" height="50" relative="1" as="geometry">
            <mxPoint x="936.23" y="-194.5" as="sourcePoint" />
            <mxPoint x="936" y="-302.5" as="targetPoint" />
          </mxGeometry>
        </mxCell>
        <mxCell id="6PMQrMNQSTVx5noMZmWa-40" value="" style="endArrow=none;html=1;rounded=0;endFill=0;endSize=10;startFill=0;" parent="WIyWlLk6GJQsqaUBKTNV-1" edge="1">
          <mxGeometry width="50" height="50" relative="1" as="geometry">
            <mxPoint x="716" y="-300" as="sourcePoint" />
            <mxPoint x="935.77" y="-301" as="targetPoint" />
          </mxGeometry>
        </mxCell>
        <mxCell id="6PMQrMNQSTVx5noMZmWa-41" value="" style="endArrow=open;html=1;rounded=0;endFill=0;endSize=10;startFill=0;" parent="WIyWlLk6GJQsqaUBKTNV-1" edge="1">
          <mxGeometry width="50" height="50" relative="1" as="geometry">
            <mxPoint x="715" y="-299" as="sourcePoint" />
            <mxPoint x="715.5" y="-388" as="targetPoint" />
          </mxGeometry>
        </mxCell>
        <mxCell id="6PMQrMNQSTVx5noMZmWa-42" value="manipula" style="text;align=left;verticalAlign=top;spacingLeft=4;spacingRight=4;overflow=hidden;rotatable=0;points=[[0,0.5],[1,0.5]];portConstraint=eastwest;rounded=0;shadow=0;html=0;labelBackgroundColor=none;fontColor=#393C56;" parent="WIyWlLk6GJQsqaUBKTNV-1" vertex="1">
          <mxGeometry x="1012" y="-338" width="69" height="26" as="geometry" />
        </mxCell>
        <mxCell id="6PMQrMNQSTVx5noMZmWa-43" value="1" style="text;align=left;verticalAlign=top;spacingLeft=4;spacingRight=4;overflow=hidden;rotatable=0;points=[[0,0.5],[1,0.5]];portConstraint=eastwest;rounded=0;shadow=0;html=0;labelBackgroundColor=none;fontColor=#393C56;fontSize=13;" parent="WIyWlLk6GJQsqaUBKTNV-1" vertex="1">
          <mxGeometry x="1011" y="-220" width="24" height="26" as="geometry" />
        </mxCell>
        <mxCell id="6PMQrMNQSTVx5noMZmWa-44" value="0..*" style="text;align=left;verticalAlign=top;spacingLeft=4;spacingRight=4;overflow=hidden;rotatable=0;points=[[0,0.5],[1,0.5]];portConstraint=eastwest;rounded=0;shadow=0;html=0;labelBackgroundColor=none;fontColor=#393C56;strokeWidth=1;perimeterSpacing=0;spacing=2;fontSize=13;" parent="WIyWlLk6GJQsqaUBKTNV-1" vertex="1">
          <mxGeometry x="1136" y="-506" width="35" height="26" as="geometry" />
        </mxCell>
        <mxCell id="6PMQrMNQSTVx5noMZmWa-45" value="persiste" style="text;align=left;verticalAlign=top;spacingLeft=4;spacingRight=4;overflow=hidden;rotatable=0;points=[[0,0.5],[1,0.5]];portConstraint=eastwest;rounded=0;shadow=0;html=0;labelBackgroundColor=none;fontColor=#393C56;" parent="WIyWlLk6GJQsqaUBKTNV-1" vertex="1">
          <mxGeometry x="798" y="-327" width="62" height="26" as="geometry" />
        </mxCell>
        <mxCell id="6PMQrMNQSTVx5noMZmWa-46" value="1" style="text;align=left;verticalAlign=top;spacingLeft=4;spacingRight=4;overflow=hidden;rotatable=0;points=[[0,0.5],[1,0.5]];portConstraint=eastwest;rounded=0;shadow=0;html=0;labelBackgroundColor=none;fontColor=#393C56;fontSize=13;" parent="WIyWlLk6GJQsqaUBKTNV-1" vertex="1">
          <mxGeometry x="936" y="-218.5" width="24" height="26" as="geometry" />
        </mxCell>
        <mxCell id="6PMQrMNQSTVx5noMZmWa-47" value="1" style="text;align=left;verticalAlign=top;spacingLeft=4;spacingRight=4;overflow=hidden;rotatable=0;points=[[0,0.5],[1,0.5]];portConstraint=eastwest;rounded=0;shadow=0;html=0;labelBackgroundColor=none;fontColor=#393C56;fontSize=13;" parent="WIyWlLk6GJQsqaUBKTNV-1" vertex="1">
          <mxGeometry x="720" y="-388" width="24" height="26" as="geometry" />
        </mxCell>
      </root>
    </mxGraphModel>
  </diagram>
</mxfile>
